<svg version="1.1" id="Layer_1" xmlns="http://www.w3.org/2000/svg" x="0" y="0" viewBox="0 0 48 48" xml:space="preserve"><style>.st1{fill:#660096}.st5{fill:#f7b238}.st6{fill:#791fa2}</style><path d="M18.6.9H4C1.9.9.1 2.6.1 4.8v38.5c0 2.1 1.7 3.9 3.9 3.9h14.6c2.1 0 3.9-1.7 3.9-3.9V4.8c0-2.2-1.7-3.9-3.9-3.9z" fill="#321a4c"/><path class="st1" d="M20.1.9H5.5C3.4.9 1.6 2.6 1.6 4.8v38.5c0 2.1 1.7 3.9 3.9 3.9h14.6c2.1 0 3.9-1.7 3.9-3.9V4.8C24 2.6 22.3.9 20.1.9z"/><path d="M19.8 2.6h-1.4c-.2 0-.4.2-.4.4v.6c0 .5-.4.8-.8.8H8.5c-.5 0-.8-.4-.8-.8V3c0-.2-.2-.4-.4-.4H5.9C4.3 2.6 3 3.9 3 5.5v37.1c0 1.6 1.3 2.9 2.9 2.9H20c1.6 0 2.9-1.3 2.9-2.9V5.5c-.2-1.6-1.5-2.9-3.1-2.9z" fill="#ec6494"/><g><path d="M32.9 43.1H10.2c-.5 0-.8-.4-.8-.8v-33c0-.5.4-.8.8-.8h22.7c.5 0 .8.4.8.8v32.9c.1.5-.3.9-.8.9z" fill="#e83d7d"/><path d="M33.8 43.1H11.1c-.5 0-.8-.4-.8-.8v-33c0-.5.4-.8.8-.8h22.7c.5 0 .8.4.8.8v32.9c.1.5-.3.9-.8.9z" fill="#8233aa"/><path class="st1" d="M32.3 36.3H12.9c-.4 0-.8-.4-.8-.8v-1.9c0-.4.4-.8.8-.8h18.9c.7 0 1.2.5 1.2 1.2v1.5c0 .4-.3.8-.7.8zm-19.2-1H32V34c0-.1-.1-.2-.2-.2H13.1v1.5z"/><path class="st5" d="M12.8 12.2H24c.1 0 .2-.1.2-.2v-1.3c0-.3-.3-.6-.6-.6H12.8c-.1 0-.2.1-.2.2V12c-.1.1 0 .2.2.2zM32.3 10.9h-4.5c-.2 0-.3-.1-.3-.3v-.1c0-.2.1-.3.3-.3h4.5c.2 0 .3.1.3.3v.1c0 .2-.1.3-.3.3zM32.3 11.9h-4.5c-.2 0-.3-.1-.3-.3v-.1c0-.2.1-.3.3-.3h4.5c.2 0 .3.1.3.3v.1c0 .2-.1.3-.3.3z"/><path class="st6" d="M25.5 19.9h-9.1c-.5 0-.9-.4-.9-.9v-.1c0-.5.4-.9.9-.9h9.1c.5 0 .9.4.9.9v.1c0 .5-.4.9-.9.9zM13.6 19.9h-.1c-.5 0-1-.4-1-1v-2.7c0-.5.4-1 1-1h.1c.5 0 1 .4 1 1V19c0 .5-.4.9-1 .9z"/><path class="st1" d="M26 22.1h1v10h-1z"/><path class="st1" d="M32.1 32.8H13c-.4 0-.8-.4-.8-.8v-9.7c0-.4.4-.8.8-.8h19.1c.4 0 .8.3.8.8V32c0 .4-.3.8-.8.8zm-18.9-1h18.7v-9.3H13.2v9.3z"/><path d="M28.6 19.3c-.2-.1-.2-.3-.2-.4l.1-.3c.1-.2.2-.2.4-.1.3.1.6.2 1 .2.3 0 .5-.1.5-.3 0-.1-.1-.2-.2-.3-.1-.1-.3-.1-.6-.2-.6-.2-1.1-.4-1.1-1.2 0-.7.5-1 1.1-1.1v-.4c0-.2.1-.3.3-.3h.3c.2 0 .3.1.3.3v.4c.3 0 .5.1.7.2.2.1.3.2.2.4l-.1.3c-.1.2-.2.3-.4.2-.3-.1-.6-.2-.9-.2-.3 0-.5.1-.5.3 0 .3.3.3.9.5.6.2 1.1.4 1.1 1.1 0 .7-.4 1-1.1 1.2v.3c0 .2-.2.3-.3.3h-.3c-.2 0-.3-.1-.3-.3v-.3l-.9-.3z" fill="#f7d84f"/><path class="st1" d="M31.9 40.7H13.3c-.5 0-.9-.4-.9-.9v-1.5c0-.5.4-.9.9-.9h18.5c.5 0 .9.4.9.9v1.5c0 .5-.4.9-.8.9z"/></g></svg>