<svg version="1.1" id="Layer_1" xmlns="http://www.w3.org/2000/svg" x="0" y="0" viewBox="0 0 48 48" xml:space="preserve"><style>.st1{fill:#660096}.st4{fill:#926caa}.st8{fill:#fff}</style><path d="M27.1 47H3c-1.2 0-2.1-.9-2.1-2.1V4.5c0-1.2.9-2.1 2.1-2.1h24.1c1.2 0 2.1.9 2.1 2.1v40.3c0 1.2-.9 2.2-2.1 2.2z" fill="#8233aa"/><path class="st1" d="M23.5 12.7H5.4c-.3 0-.5-.2-.5-.5s.2-.5.5-.5h18.1c.3 0 .5.2.5.5s-.2.5-.5.5zM17.5 9.4H5.4c-.3 0-.5-.2-.5-.5s.2-.5.5-.5h12.1c.3 0 .5.2.5.5s-.2.5-.5.5zM23.5 42.4H5.4c-.3 0-.5-.2-.5-.5s.2-.5.5-.5h18.1c.3 0 .5.2.5.5s-.2.5-.5.5zM17.5 39.2H5.4c-.3 0-.5-.2-.5-.5s.2-.5.5-.5h12.1c.3 0 .5.2.5.5s-.2.5-.5.5zM20.1 15.9H5.4c-.3 0-.5-.2-.5-.5s.2-.5.5-.5H20c.3 0 .5.2.5.5s-.2.5-.4.5z"/><path d="M6.2 32.3c-.5-.3-.6-.7-.4-1.1l.3-.7c.2-.5.6-.6 1.2-.3.8.3 1.8.6 2.7.6.8 0 1.5-.2 1.5-.8 0-.4-.2-.5-.6-.7-.3-.2-.9-.3-1.7-.5-1.7-.5-3.2-1.3-3.2-3.3 0-1.8 1.3-2.8 3-3.1v-1c0-.4.4-.8.8-.8h.8c.5 0 .9.3.9.8v1c.7.1 1.4.3 2 .5.5.1.7.5.5 1.1l-.2.7c-.2.5-.6.7-1.2.5-.8-.3-1.7-.6-2.5-.6-.9 0-1.5.2-1.5.8 0 .8.8.9 2.5 1.4 1.7.4 3.2 1.1 3.2 3 0 2-1.2 2.9-3 3.2v1c0 .5-.4.8-.9.8h-.8c-.5 0-.9-.3-.9-.8v-1c-.9-.1-1.7-.3-2.5-.7z" fill="#f7d84f"/><path d="M32.2 11.2c-1.3-.9-2.9-1.4-4.6-1.5-5.3-.3-9.8 3.6-10.1 8.9-.3 5.3 3.6 9.8 8.9 10.1 2.1.1 4.2-.4 5.8-1.5v-16z" fill="#bf96d3"/><path class="st4" d="M25.5 16.1h-9.2c-.5 0-.8-.4-.8-.8 0-.5.4-.8.8-.8h9.2c.5 0 .8.4.8.8s-.4.8-.8.8zM27.4 19.9h-11c-.5 0-.8-.4-.8-.8 0-.5.4-.8.8-.8h11c.5 0 .8.4.8.8.1.5-.3.8-.8.8z"/><path d="M43.8 40.2c-.4 0-.8-.2-1.2-.5L31.8 28.9c-.6-.6-.6-1.7 0-2.3.6-.6 1.7-.6 2.3 0L45 37.4c.6.6.6 1.7 0 2.3-.4.3-.8.5-1.2.5z" fill="#d53580"/><path d="M43.8 41.1c-.7 0-1.3-.3-1.8-.8l-5-5c-1-1-1-2.6 0-3.6s2.6-1 3.6 0l5 5c1 1 1 2.6 0 3.6-.5.6-1.1.8-1.8.8z" fill="#ff9600"/><path d="M26.3 31.4c-6.7 0-12.1-5.4-12.1-12.1S19.6 7.2 26.3 7.2s12.1 5.4 12.1 12.1S33 31.4 26.3 31.4zm0-20.9c-4.9 0-8.8 4-8.8 8.8 0 4.9 4 8.8 8.8 8.8s8.8-4 8.8-8.8c0-4.8-3.9-8.8-8.8-8.8z" fill="#e83d7d"/><path class="st8" d="M19.1 18.4c-.4-.1-.5-.3-.5-.6.1-.6.3-1.2.5-1.8.1-.3.4-.4.7-.3.3.1.4.4.3.7-.2.5-.4 1-.5 1.5 0 .4-.3.5-.5.5zM29.6 26.3c-.2 0-.4-.1-.4-.3-.1-.2 0-.5.2-.7.5-.3 1-.6 1.5-1 .2-.2.5-.2.7.1.2.2.2.5-.1.7-.5.4-1.1.8-1.7 1.1 0 .1-.1.1-.2.1zM20.6 15.2c-.1 0-.2 0-.3-.1-.2-.2-.3-.5-.1-.7 1.5-1.9 3.8-3.1 6.2-3.1.3 0 .5.2.5.5s-.2.5-.5.5c-2.1 0-4.1 1-5.5 2.7-.1.1-.2.2-.3.2z"/></svg>