<?xml version="1.0" encoding="utf-8"?>
<!-- Generator: Adobe Illustrator 23.0.4, SVG Export Plug-In . SVG Version: 6.00 Build 0)  -->
<svg version="1.1" id="Layer_1" xmlns="http://www.w3.org/2000/svg" xmlns:xlink="http://www.w3.org/1999/xlink" x="0px" y="0px"
	 viewBox="0 0 48 48" style="enable-background:new 0 0 48 48;" xml:space="preserve">
<style type="text/css">
	.st0{fill:#660096;}
	.st1{fill:#8233AA;}
	.st2{fill:#EC6494;}
	.st3{fill:#321A4C;}
	.st4{fill:#55057F;}
	.st5{fill:#DA5794;}
	.st6{fill:#F7D84F;}
	.st7{fill:#FF9600;}
	.st8{fill:#EAC456;}
</style>
<path class="st0" d="M47.2,45.6H0.4l4.2-6.8C5.1,38,6,37.5,6.9,37.5h33.8c0.9,0,1.8,0.5,2.3,1.3C43,38.8,47.2,45.6,47.2,45.6z"/>
<path class="st1" d="M0.6,45.3l-0.2,0.3h46.8L47,45.3H0.6z"/>
<path class="st0" d="M41.44,14H6.26c-0.48,0-0.86,0.39-0.86,0.86v21.77c0,0.48,0.39,0.86,0.86,0.86h35.17
	c0.48,0,0.86-0.39,0.86-0.86V14.86C42.3,14.39,41.91,14,41.44,14z"/>
<path class="st2" d="M6.9,35.25V16.55c0-0.47,0.38-0.85,0.85-0.85h32.21c0.47,0,0.85,0.38,0.85,0.85v18.71
	c0,0.47-0.38,0.85-0.85,0.85H7.75C7.28,36.1,6.9,35.72,6.9,35.25z"/>
<path class="st3" d="M45.9,47.1H1.7c-0.7,0-1.3-0.6-1.3-1.3v-0.1h46.7v0.1C47.2,46.5,46.6,47.1,45.9,47.1z M42.4,40.4l-0.6-1
	c-0.5-0.8-1.4-1.3-2.3-1.3H7.9c-1,0-1.8,0.5-2.3,1.3l-0.6,1c-0.3,0.6,0.1,1.3,0.7,1.3h36C42.3,41.7,42.7,40.9,42.4,40.4z M27.5,44.1
	l-0.6-1.5c-0.1-0.2-0.3-0.3-0.5-0.3h-5.5c-0.2,0-0.4,0.1-0.5,0.3l-0.6,1.5c-0.1,0.3,0.1,0.7,0.5,0.7H27
	C27.4,44.8,27.6,44.5,27.5,44.1z"/>
<path class="st4" d="M10.1,14h27.5v1.7H10.1V14z"/>
<path class="st5" d="M10.1,15.73L11,36.08h25.67l0.9-20.35L10.1,15.73z"/>
<path class="st6" d="M33.7,6.58H13.8c-1,0-1.8,0.8-1.8,1.8v27.7h23.4V8.38C35.5,7.38,34.7,6.58,33.7,6.58z"/>
<g>
	<path class="st7" d="M22.1,10.3h-6.2c-0.1,0-0.2-0.1-0.2-0.2s0.1-0.2,0.2-0.2h6.2c0.1,0,0.2,0.1,0.2,0.2S22.2,10.3,22.1,10.3z"/>
</g>
<g>
	<path class="st7" d="M19.1,11.6h-3.2c-0.1,0-0.2-0.1-0.2-0.2s0.1-0.2,0.2-0.2h3.2c0.1,0,0.2,0.1,0.2,0.2S19.2,11.6,19.1,11.6z"/>
</g>
<g>
	<path class="st7" d="M20.2,12.9h-4.4c-0.1,0-0.2-0.1-0.2-0.2s0.1-0.2,0.2-0.2h4.4c0.1,0,0.2,0.1,0.2,0.2
		C20.5,12.8,20.4,12.9,20.2,12.9z"/>
</g>
<g>
	<path class="st7" d="M31.9,12.7h-4.8c-0.4,0-0.7-0.3-0.7-0.7v-1.7c0-0.4,0.3-0.7,0.7-0.7h4.8c0.4,0,0.7,0.3,0.7,0.7V12
		C32.6,12.4,32.3,12.7,31.9,12.7z"/>
</g>
<g>
	<path class="st8" d="M19.6,29.9c-0.5-0.3-0.6-0.7-0.4-1.1l0.3-0.7c0.2-0.5,0.6-0.6,1.2-0.3c0.8,0.3,1.8,0.6,2.7,0.6
		c0.8,0,1.5-0.2,1.5-0.8c0-0.4-0.2-0.5-0.6-0.7c-0.3-0.2-0.9-0.3-1.7-0.5c-1.7-0.4-3.2-1.2-3.2-3.2c0-1.8,1.3-2.8,3-3.1v-1
		c0-0.4,0.4-0.8,0.8-0.8H24c0.5,0,0.9,0.3,0.9,0.8v1c0.7,0.1,1.4,0.3,2,0.5c0.5,0.2,0.7,0.5,0.6,1.1l-0.2,0.7
		c-0.2,0.5-0.6,0.7-1.2,0.5c-0.8-0.3-1.7-0.6-2.5-0.6c-0.9,0-1.5,0.2-1.5,0.8c0,0.8,0.8,0.9,2.5,1.4c1.7,0.4,3.2,1.1,3.2,3
		c0,2-1.2,2.9-3,3.2v1c0,0.5-0.4,0.8-0.9,0.8H23c-0.5,0-0.9-0.3-0.9-0.8v-0.9C21.3,30.5,20.4,30.3,19.6,29.9z"/>
</g>
<g>
	<path class="st1" d="M19.6,29.4c-0.5-0.3-0.6-0.7-0.4-1.1l0.3-0.7c0.2-0.5,0.6-0.6,1.2-0.3c0.8,0.3,1.8,0.6,2.7,0.6
		c0.8,0,1.5-0.2,1.5-0.8c0-0.4-0.2-0.5-0.6-0.7c-0.3-0.2-0.9-0.3-1.7-0.5c-1.7-0.4-3.2-1.2-3.2-3.2c0-1.8,1.3-2.8,3-3.1v-1
		c0-0.4,0.4-0.8,0.8-0.8H24c0.5,0,0.9,0.3,0.9,0.8v1c0.7,0.1,1.4,0.3,2,0.5c0.5,0.2,0.7,0.5,0.6,1.1l-0.2,0.7
		c-0.2,0.5-0.6,0.7-1.2,0.5c-0.8-0.3-1.7-0.6-2.5-0.6c-0.9,0-1.5,0.2-1.5,0.8c0,0.8,0.8,0.9,2.5,1.4c1.7,0.4,3.2,1.1,3.2,3
		c0,2-1.2,2.9-3,3.2v1c0,0.5-0.4,0.8-0.9,0.8H23c-0.5,0-0.9-0.3-0.9-0.8v-0.9C21.3,30,20.4,29.8,19.6,29.4z"/>
</g>
</svg>
