<svg version="1.1" id="Layer_1" xmlns="http://www.w3.org/2000/svg" x="0" y="0" viewBox="0 0 252 252" xml:space="preserve"><style>.st1{fill:#fadb4f}.st2{fill:#edc756}</style><path d="M195.9 205.3V96.9c0-8-6.5-14.5-14.5-14.5H30.5c-8 0-14.5 6.5-14.5 14.5v136.7c0 8 6.5 14.5 14.5 14.5h190.7c1.4 0 2.5-.9 2.8-2.1.3-1 1-9.1.1-10l-20-11.2c-5.2-5.2-8.2-12.2-8.2-19.5z" fill="#f90"/><path class="st1" d="M196.2 197.2V88.8c0-8-6.5-14.5-14.5-14.5H30.9c-8 0-14.5 6.5-14.5 14.5v136.7c0 8 6.5 14.5 14.5 14.5h190.7c2.7 0 4-3.3 2.1-5.1l-19.1-18.2c-5.4-5.2-8.4-12.2-8.4-19.5z"/><path class="st2" d="M146.9 136.6c0 16-8.3 29.9-32.7 33.6v1.8c0 5.8-4.3 10-10 10h-5.7c-5.7 0-10.2-3.9-10.2-10.2v-10.2c0-5.8 3.6-10 9.3-10.7 15.1-1.9 21-4.6 21-11.8 0-6.5-7.2-8.6-16.8-8.6-6.6 0-14 1.8-21.7 5.3-6.2 2.5-11 .7-13.4-4.2l-2.8-5.5c-2.5-5.3-.8-10.4 4.3-13.4 10-6.2 23.8-8.1 33.7-8.1 24.8 0 45 8.8 45 32zm-62.2 69c0-9 6.8-16 15.9-16s15.9 6.9 15.9 16-6.8 15.5-15.9 15.5-15.9-6.5-15.9-15.5z"/><path d="M146.9 131.3c0 16-8.3 29.9-32.7 33.6v1.8c0 5.8-4.3 10-10 10h-5.7c-5.7 0-10.2-3.9-10.2-10.2v-10.2c0-5.8 3.6-10 9.3-10.7 15.1-1.9 21-4.6 21-11.8 0-6.5-7.2-8.6-16.8-8.6-6.6 0-14 1.8-21.7 5.3-6.2 2.5-11 .7-13.4-4.2l-2.8-5.5c-2.5-5.3-.8-10.4 4.3-13.4 10-6.2 23.8-8.1 33.7-8.1 24.8.1 45 8.9 45 32zm-62.2 69c0-9 6.8-16 15.9-16s15.9 6.9 15.9 16-6.8 15.5-15.9 15.5-15.9-6.4-15.9-15.5z" fill="#609"/><path class="st2" d="M181.8 74.3h-45.6c-.4 4.2-.3 8.3.3 12.3.6 4.2-.8 8.5-3.4 11.9l-12.7 16.4c-1.3 1.6.1 4 2.1 3.7l17.8-2.3c5-.6 10 1.1 13.7 4.6 8.9 8.4 20.5 14 33.8 15.3 2.8.3 5.7.3 8.5.1V88.8c-.1-8-6.6-14.5-14.5-14.5z"/><path d="M128.8 104.1l-8.4 10.9c-1.3 1.6.1 4 2.1 3.7l17.8-2.3c.9-.1 1.9-.1 2.8-.1-3.1-5.5-8.1-9.5-14.3-12.2z" fill="#55057f"/><path d="M183.2 4c-29.1 2.3-52.7 25.9-55 55-.7 8.2.4 16.1 2.7 23.4 1.4 4.3.8 8.9-1.2 12.9l-10 19.3c-1 1.9.8 4.1 2.9 3.4l17.9-5.7c5-1.6 10.5-.8 15 2.1 10.7 6.9 23.8 10.6 37.7 9.4 29.8-2.5 53.6-27.3 54.9-57.1 1.6-36.2-28.6-65.6-64.9-62.7z" fill="#eb3d7d"/><circle class="st1" cx="163.1" cy="65.2" r="7.8"/><circle class="st1" cx="188.9" cy="65.2" r="7.8"/><circle class="st1" cx="214.7" cy="65.2" r="7.8"/></svg>