<?xml version="1.0" encoding="utf-8"?>
<!-- Generator: Adobe Illustrator 25.4.1, SVG Export Plug-In . SVG Version: 6.00 Build 0)  -->
<svg version="1.1" id="Layer_1" xmlns="http://www.w3.org/2000/svg" xmlns:xlink="http://www.w3.org/1999/xlink" x="0px" y="0px"
	 viewBox="0 0 320 320" style="enable-background:new 0 0 320 320;" xml:space="preserve">
<style type="text/css">
	.st0{fill:#FFAD33;}
	.st1{fill:#EA522F;}
	.st2{fill:#EB3D7D;}
	.st3{fill:#D83582;}
	.st4{fill:#F18B0E;}
	.st5{fill:#FAB538;}
	.st6{fill:#EF9B3D;}
	.st7{fill:#660099;}
</style>
<path class="st0" d="M296.7,318.7H25c-12,0-21.7-9.7-21.7-21.7V130.4c0-4.1,3.4-7.5,7.5-7.5h300.4c3.9,0,7.1,3.2,7.1,7.1v167.4
	C318,309.4,308.6,318.7,296.7,318.7L296.7,318.7z"/>
<path class="st1" d="M280.2,124.9l0.4-33.3l32.5,25.8c3.4,2.6,5.2,6.7,5.2,10.8v6.3l-33.7,18.7C284.6,153.2,280.2,124.9,280.2,124.9
	z M5.6,134.5L3.3,133v-3c0-4.1,1.9-8.2,5.2-10.8L41,93.4l0.4,33.3C41.4,126.7,5.6,134.5,5.6,134.5z"/>
<path class="st1" d="M301.8,122.4L25,122.9c-8.2,0-15.3,4.9-19.1,11.6l148,91.6c3.7,2.2,9.3,2.2,13.5,0l148.4-91.2
	C316,126.8,310,122.4,301.8,122.4z"/>
<path class="st2" d="M271.3,265.7H50.4c-6,0-10.5-4.9-10.5-10.5V52.7c0-6,4.9-10.5,10.5-10.5h220.8c6,0,10.5,4.9,10.5,10.5v202.5
	C281.7,261.2,276.9,265.7,271.3,265.7L271.3,265.7z"/>
<path class="st3" d="M158.4,220.8L40,145v123.7c0,6,4.9,10.5,10.5,10.5H53l105.4-57.5l105.4,57.5h7.5c6,0,10.5-4.9,10.5-10.5V142.4
	L158.4,220.8L158.4,220.8z"/>
<path class="st0" d="M170,228.3L13.4,143.1v170.4L170,228.3z"/>
<path class="st4" d="M23.5,307.9l5.2-2.6l126-85.2l-38.1-20.9L23.5,307.9z"/>
<path class="st0" d="M146.8,228.3l156.6-85.2v170.4L146.8,228.3z"/>
<path class="st4" d="M293.3,307.9l-5.6-2.6l-125.9-85.2l38.5-20.9L293.3,307.9z"/>
<path class="st0" d="M151.3,193.9L16,317.2h290L170.7,193.9C164.8,189.1,156.5,189.1,151.3,193.9z"/>
<path class="st3" d="M149.8,24.3L75.2,148.8c-4.8,7.9,1,18,10.2,18h149.2c9.3,0,15-10.1,10.2-18L170.2,24.3
	C165.6,16.6,154.4,16.6,149.8,24.3z"/>
<path class="st5" d="M149.8,15.2L75.2,139.7c-4.8,7.9,1,18,10.2,18h149.2c9.3,0,15-10.1,10.2-18L170.2,15.2
	C165.6,7.5,154.4,7.5,149.8,15.2z"/>
<path class="st6" d="M165,56.1c4.7,0,9.1,3.8,8.6,8.6l-2.6,39.4c-0.5,4.7-3.8,7.7-8.6,7.7h-4.5c-4.7,0-8.1-3-8.6-7.7l-2.8-39.4
	c-0.2-4.7,4.2-8.6,8.6-8.6H165L165,56.1z M146.9,131.5c0-6.8,5.6-12.1,13.1-12.1s13.1,5.3,13.1,12.1c0,6.8-5.6,11.7-13.1,11.7
	C152.5,143.3,146.9,138.4,146.9,131.5z"/>
<path class="st7" d="M165,50.9c4.7,0,9.1,3.8,8.6,8.6L171,98.9c-0.5,4.7-3.8,7.7-8.6,7.7h-4.5c-4.7,0-8.1-3-8.6-7.7l-2.8-39.4
	c-0.2-4.7,4.2-8.6,8.6-8.6H165L165,50.9z M146.9,126.4c0-6.8,5.6-12.1,13.1-12.1s13.1,5.3,13.1,12.1s-5.6,11.7-13.1,11.7
	S146.9,133.2,146.9,126.4z"/>
</svg>
