<svg version="1.1" id="Layer_1" xmlns="http://www.w3.org/2000/svg" x="0" y="0" viewBox="0 0 48 48" xml:space="preserve"><style>.st0{fill:#f7d84f}.st1{fill:#ff9600}.st2{fill:#eac456}</style><path class="st0" d="M15.7 18.2s.8-4.6 4.8-6.9c.9-.5 2.8.7 3.4 1.5 1 1.3-2.9 4.5-4.8 5.2-3.9 1.5-3.4.2-3.4.2z"/><path class="st1" d="M18 18s2.2-3.6 4.1-4.7c2-1.2 2.2-.1 1.8.8-.6 1.4-3.8 3.9-3.8 3.9H18z"/><path class="st2" d="M18.7 21.9s1.4-7.2-3.6-11.3c-1.1-.9-4.2.4-5.2 1.3-1.7 1.6 3 6.9 5.6 8.4 5.1 2.9 3.2 1.6 3.2 1.6z"/><path class="st1" d="M17 20.5s-2.2-5.6-4.6-7.6c-2.6-2.1-3.1-.6-2.7.6.6 2.1 4.4 6.3 4.4 6.3l2.9.7z"/><path class="st0" d="M18.1 19.7S14.4 14.2 8 13.4c-1.4-.2-3.3 2.5-3.6 3.9-.6 2.3 6.2 4.2 9.2 4.1 6-.3 4.5-1.7 4.5-1.7z"/><path class="st1" d="M15 20.8s-4.9-3.5-8-3.9c-3.3-.4-2.9 1.2-2 2 1.6 1.4 7.1 3 7.1 3l2.9-1.1z"/><path class="st0" d="M16.7 19.7s3.9-5.4 10.3-5.9c1.4-.1 3.2 2.7 3.5 4.1.5 2.3-6.4 4-9.4 3.7-5.9-.6-4.4-1.9-4.4-1.9z"/><path class="st1" d="M19.8 20.9s5-3.3 8.1-3.6c3.3-.2 2.9 1.3 1.9 2.1-1.7 1.4-7.2 2.7-7.2 2.7l-2.8-1.2z"/><path d="M32.1 47.2H3c-.7 0-1.2-.5-1.2-1.2V22.9c0-.7.5-1.2 1.2-1.2h29.1c.7 0 1.2.5 1.2 1.2V46c0 .7-.5 1.2-1.2 1.2z" fill="#791fa2"/><path fill="#660096" d="M1.8 21.7h31.6v7.8H1.8z"/><path class="st2" d="M14.4 23.6h6.4v23.7h-6.4z"/><path class="st1" d="M14.4 26.5h6.4v3h-6.4z"/><path d="M33.8 27.8H1.3c-.6 0-1-.5-1-1v-7.2c0-.6.5-1 1-1h32.5c.6 0 1 .5 1 1v7.2c0 .6-.4 1-1 1z" fill="#8233aa"/><path class="st0" d="M14.4 18.5h6.4v9.3h-6.4z"/><path d="M36.5 1.4c-4.7.4-8.6 4.2-9.1 8.9-.3 2.5.3 4.8 1.5 6.6.1.1.1.2.1.4l-.7 2.5c-.1.3.2.6.5.5l2.4-.7c.1 0 .3 0 .4.1 2.1 1.5 4.7 2.2 7.6 1.7 4.2-.7 7.5-4.1 8.2-8.3C48.4 6.5 43 .8 36.5 1.4z" fill="#e83d7d"/><g><path d="M34.6 15.1c-.4-.2-.5-.5-.3-.9l.3-.5c.1-.3.5-.4.9-.2.6.2 1.3.4 2 .4.6 0 1.1-.2 1.1-.6 0-.3-.2-.4-.4-.5-.3-.1-.7-.2-1.3-.4-1.3-.3-2.4-.9-2.4-2.5 0-1.4 1-2.1 2.3-2.4v-.8c0-.3.3-.6.6-.6h.6c.3 0 .7.2.7.6v.8c.5.1 1 .2 1.5.4.4.1.5.4.4.8l-.1.5c-.1.4-.4.5-.9.4-.6-.2-1.3-.4-1.9-.4-.7 0-1.1.1-1.1.6 0 .6.6.7 1.9 1 1.3.3 2.4.8 2.4 2.3 0 1.5-1 2.2-2.3 2.5v.8c0 .3-.3.6-.7.6h-.6c-.3 0-.7-.2-.7-.6v-.7c-.7-.1-1.4-.3-2-.6z" fill="#c91f59"/></g><g><path class="st0" d="M34.5 14.7c-.4-.2-.5-.5-.3-.9l.3-.5c.1-.3.5-.4.9-.2.6.2 1.3.4 2 .4.6 0 1.1-.2 1.1-.6 0-.3-.2-.4-.4-.5-.3-.1-.7-.2-1.3-.4-1.3-.3-2.4-.9-2.4-2.5 0-1.4 1-2.1 2.3-2.4v-.8c0-.3.3-.6.6-.6h.6c.3 0 .7.2.7.6v.8c.5.1 1 .2 1.5.4.4.1.5.4.4.8l-.1.5c-.1.4-.4.5-.9.4-.6-.2-1.3-.4-1.9-.4-.7 0-1.1.1-1.1.6 0 .6.6.7 1.9 1 1.3.3 2.4.8 2.4 2.3 0 1.5-1 2.2-2.3 2.5v.8c0 .3-.3.6-.7.6h-.6c-.3 0-.7-.2-.7-.6v-.7c-.7-.2-1.4-.3-2-.6z"/></g></svg>