<?xml version="1.0" encoding="utf-8"?>
<!-- Generator: Adobe Illustrator 26.0.1, SVG Export Plug-In . SVG Version: 6.00 Build 0)  -->
<svg version="1.1" id="Layer_1" xmlns="http://www.w3.org/2000/svg" xmlns:xlink="http://www.w3.org/1999/xlink" x="0px" y="0px"
	 viewBox="0 0 320 320" style="enable-background:new 0 0 320 320;" xml:space="preserve">
<style type="text/css">
	.st0{fill:#EB3D7D;}
	.st1{fill:#EF6497;}
	.st2{fill:#F4D7BA;}
	.st3{fill:#EDCCB8;}
	.st4{fill:#FF9900;}
	.st5{fill:#F9DA4F;}
	.st6{fill:#FA6324;}
	.st7{fill:#FAB538;}
	.st8{fill:#660098;}
</style>
<path class="st0" d="M4.8,289.6c0-74.1,41.9-80,88.3-81.2c42.2-1.2,60.7-3,83.9,5.1c43.4,14.9,44.9,44.3,43.4,84.5
	c-0.9,24.7-65.4,22-117.2,22.3C51.5,320.6,4.8,314,4.8,289.6L4.8,289.6z"/>
<path class="st1" d="M93.7,206l-6.5,1.8c0,0-12.8,9.8-0.9,23.2c10.7,11.9,42.8,15.2,59.2,0.6c5.4-4.8,6.5-10.7,6.2-14.6
	c-0.3-7.7-7.4-11.9-7.4-11.9S93.7,206,93.7,206z"/>
<path class="st2" d="M87.2,135.3c-0.3-1.8,55.6-22.6,54.7-5.9c-1.2,17.5-1.5,38.4,0.6,56.2c1.2,8.9,5.7,23.5,5.7,23.5
	c2.7,10.7-3.3,21.7-18.4,25.3c-22.9,5.1-37.5-2.1-42.2-8c-3-3.6-3.3-9.5-2.7-11.9c1.5-5.9,4.5-17.3,3.9-39.9
	C88.4,155.8,89,154.6,87.2,135.3L87.2,135.3z"/>
<path class="st3" d="M87.2,135.3c0.6,5.9,0.9,10.1,0.9,13.7c0.6,10.1,0.9,20.5,0.6,30.6c0,13.4-1.2,22.6-2.4,28.6
	C90.1,206,97.6,198,99.7,195c14.3-18.4,33.3-44.6,40.8-69.3C132.7,116.5,86.9,133.5,87.2,135.3z"/>
<path class="st2" d="M153.8,66.5c-14.9-39.5-55-49-84.8-36.8c-44.6,18.1-28,38.7-36,71.1c-3.6,17.3-11.6,23.8-5.1,27.4
	c3.3,1.8,7.4-0.3,10.1,1.8c1.8,1.5,10.1,39.3,13.4,42.5c5.9,5.9,19.6,5.4,27.1,4.5c16.1-1.8,32.1-6.2,45.5-14.6
	c19.3-11.9,30.6-31.5,33.6-53.2C159.5,94.8,158.9,80.2,153.8,66.5z"/>
<path class="st4" d="M37.5,18.6c-6.2,5.1-10.7,11.6-12.2,20.2c-2.1,13.4,8.3,25.3,17.8,33.3c5.9,5.1,28.3,12.2,16.7-3.6
	c9.8,1.8,19.6,2.4,29.4,1.5c1.8,0,3,1.2,3.6,2.7c5.9,17,6.8,19.6,6.5,29.2c-0.3,5.7-0.9,7.4,1.2,10.1c1.2,1.5,3,2.1,5.1,2.1
	c1.8,0,3.6-0.6,5.4-1.2c0.6-5.4,0.6-12.2,4.5-16.1c3.9-3,9.5-3.3,13.7-0.9c6.2,3.9,7.4,13.4,6.5,19.9c-0.9,5.7-2.1,11-2.1,16.7
	c0,3,1.2,7.4,2.7,10.1c0.3,0.6,0.6,1.5,0.9,2.4c1.2,3,4.5,5.1,7.7,4.2c1.2-0.3,2.7-0.6,3.3-0.6c6.2,0.3,11.3-11.3,14.3-15.8
	c4.8-7.1,8.9-15.2,11.9-23.2c6.5-16.1,9.8-33.6,9.5-50.9c-0.3-12.8-3.3-26.8-18.4-28.6c-0.6,0-1.5,0-2.1-0.3
	c-1.2-0.6-1.8-2.4-2.1-3.9c-3-11.6-15.5-16.7-26.2-19.3c-24.4-6.2-50.3-5.9-74.7,0.6C52.7,9.7,44.3,13,37.5,18.6z"/>
<g>
	<path class="st5" d="M294.6,266.3H280v-85.8c0-19.6-16.6-36.2-36.2-36.2s-36.2,16.6-36.2,36.2v85.8H193v-85.8
		c0-28,22.8-50.7,50.7-50.7s50.7,22.8,50.7,50.7v85.8H294.6z"/>
	<path class="st6" d="M211.3,200.6h90c7.8,0,14,6.2,14,14v90c0,7.8-6.2,14-14,14h-90c-7.8,0-14-6.2-14-14v-90
		C197.3,206.9,203.5,200.6,211.3,200.6L211.3,200.6z"/>
	<path class="st7" d="M182.3,200.6h90c7.8,0,14,6.2,14,14v90c0,7.8-6.2,14-14,14h-90c-7.8,0-14-6.2-14-14v-90
		C168.9,206.9,175.1,200.6,182.3,200.6L182.3,200.6z"/>
	<path class="st8" d="M246.4,243.6c0-10.9-8.8-19.1-19.1-19.1c-2.1,0-4.1,0.5-6.2,1c-5.8,2.1-10.3,6.7-12.4,12.4
		c-2.6,7.8,0,16,6.7,21.2c3.1,2.1,4.7,5.7,4.1,9.3V287c0,4.1,3.1,7.2,7.2,7.2s7.2-3.1,7.2-7.2v-18.6c0-3.6,1.6-7.2,4.7-9.3
		C243.3,255.4,246.4,249.8,246.4,243.6z"/>
</g>
</svg>
