<svg version="1.1" id="Layer_1" xmlns="http://www.w3.org/2000/svg" x="0" y="0" viewBox="0 0 48 48" xml:space="preserve"><style>.st0{fill:#e83d7d}.st2{fill:#660096}.st3{fill:#f7b238}.st4{fill:#791fa2}.st5{fill:#f7d84f}</style><path class="st0" d="M35.6 43.1H12.9c-.5 0-.8-.4-.8-.8V9.4c0-.5.4-.8.8-.8h22.7c.5 0 .8.4.8.8v32.9c0 .5-.3.8-.8.8z"/><path d="M36.5 43.1H13.8c-.5 0-.8-.4-.8-.8V9.4c0-.5.4-.8.8-.8h22.7c.5 0 .8.4.8.8v32.9c0 .5-.3.8-.8.8z" fill="#8233aa"/><path class="st2" d="M34.9 36.3H15.6c-.4 0-.8-.4-.8-.8v-1.9c0-.4.4-.8.8-.8h18.9c.7 0 1.2.5 1.2 1.2v1.5c0 .5-.4.8-.8.8zm-19.1-1h18.9V34c0-.1-.1-.2-.2-.2H15.8v1.5z"/><path class="st3" d="M15.4 12.3h11.2c.1 0 .2-.1.2-.2v-1.3c0-.3-.3-.6-.6-.6H15.4c-.1 0-.2.1-.2.2V12c0 .1.1.3.2.3zM35 10.9h-4.5c-.2 0-.3-.1-.3-.3v-.1c0-.2.1-.3.3-.3H35c.2 0 .3.1.3.3v.1c-.1.2-.2.3-.3.3zM35 12h-4.5c-.2 0-.3-.1-.3-.3v-.1c0-.2.1-.3.3-.3H35c.2 0 .3.1.3.3v.1c-.1.2-.2.3-.3.3z"/><path class="st4" d="M28.2 19.9h-9.1c-.5 0-.9-.4-.9-.9v-.1c0-.5.4-.9.9-.9h9.1c.5 0 .9.4.9.9v.1c0 .5-.4.9-.9.9zM16.3 20h-.1c-.5 0-1-.4-1-1v-2.7c0-.5.4-1 1-1h.1c.5 0 1 .4 1 1V19c0 .6-.5 1-1 1z"/><path class="st2" d="M28.6 22.2h1v10h-1z"/><path class="st2" d="M34.8 32.8H15.6c-.4 0-.8-.3-.8-.8v-9.7c0-.4.3-.8.8-.8h19.1c.4 0 .8.4.8.8V32c.1.4-.3.8-.7.8zm-18.9-1h18.7v-9.3H15.9v9.3z"/><path class="st5" d="M31.3 19.3c-.2-.1-.2-.3-.2-.4l.1-.3c.1-.2.2-.2.4-.1.3.1.6.2 1 .2.3 0 .5-.1.5-.3 0-.1-.1-.2-.2-.3-.1-.1-.3-.1-.6-.2-.6-.2-1.1-.4-1.1-1.2 0-.7.5-1 1.1-1.1v-.4c0-.2.1-.3.3-.3h.3c.2 0 .3.1.3.3v.4c.3 0 .5.1.7.2.2.1.3.2.2.4l-.1.4c-.1.2-.2.3-.4.2-.3-.1-.6-.2-.9-.2-.3 0-.5.1-.5.3 0 .3.3.3.9.5.6.2 1.1.4 1.1 1.1 0 .7-.4 1-1.1 1.2v.3c0 .2-.2.3-.3.3h-.3c-.2 0-.3-.1-.3-.3v-.3c-.3-.2-.6-.2-.9-.4z"/><path class="st2" d="M34.5 40.7H16c-.5 0-.9-.4-.9-.9v-1.5c0-.5.4-.9.9-.9h18.5c.5 0 .9.4.9.9v1.5c0 .5-.4.9-.9.9z"/><g><path d="M1.8 6.7c.8-1.5 2.9-2 2.9-2 .2 0 5.5 2.5 5.7 2.7.2.2.4.4.6.7.2.3.3.6.4.9.1.3.2.7.2 1.1 0 0 2.7 36 2.6 36.3-.1.3-.9.9-1.4 1.1-.8.4-1.6.4-1.8.4l-6-.5c-.3 0-.6-.1-.8-.2C1.7 45.6.8 43.3.5 29.5.3 16.2.9 8.4 1.8 6.7z" fill="#c91f59"/><path class="st0" d="M10.4 8L10.2.8c0-.4.4-.7.8-.6.3.1.4.3.5.6l.1 7.2c0 .4-.4.7-.8.6-.2-.1-.4-.3-.4-.6z"/><path class="st0" d="M5.5 4.6c-.3-.1-.5 0-.7 0-.2.1-.4.2-.5.4-.2.2-.3.5-.4.8-.1.3-.1.6-.1 1l.9 36.6c0 .4.1.8.2 1.1.1.3.2.7.4.9.2.3.4.5.6.7.2.2.5.3.7.3l6.4.6c.2 0 .5 0 .7-.1.2-.1.4-.3.6-.5.2-.2.3-.5.4-.8.1-.3.1-.7.1-1L13.6 9.2c0-.4-.1-.7-.2-1.1-.1-.3-.2-.6-.4-.9-.2-.3-.4-.5-.6-.7-.2-.2-.4-.3-.7-.4L5.5 4.6"/><path class="st5" d="M5.1 10.1h-.3c-.1 0-.2.1-.2.2-.1.1-.1.2-.1.3v.4l.2 6.6c0 .1 0 .3.1.4s.1.2.2.3c.1.1.1.2.2.3.1.1.2.1.3.1l7.5 1.4h.3c.1 0 .1-.1.2-.2s.1-.2.1-.3v-.4l-.2-6.4c0-.1 0-.2-.1-.4 0-.1-.1-.2-.1-.3-.1-.1-.1-.2-.2-.2-.1-.1-.2-.1-.3-.1l-7.6-1.7"/><path d="M11.5 25l.7.1c.1 0 .2.1.3.1l.2.2c.1.1.1.2.1.3 0 .1.1.3.1.4v.4c0 .1-.1.2-.1.3l-.2.2c-.1 0-.2.1-.3 0h-.7c-.1 0-.2-.1-.3-.1l-.2-.2c-.1-.1-.1-.2-.1-.3 0-.1-.1-.3-.1-.4v-.4c0-.1.1-.2.1-.3l.2-.2c.1-.1.2-.1.3-.1m-2.6-.4l.7.1c.1 0 .2.1.3.1.1.1.2.2.2.3.1.1.1.2.1.3 0 .1.1.3.1.4v.4c0 .1-.1.2-.1.3l-.2.2c-.1 0-.2.1-.3 0l-.7-.1c-.1 0-.2-.1-.3-.1-.1-.1-.2-.2-.2-.3-.1-.1-.1-.2-.2-.3s-.1-.3-.1-.4v-.4c0-.1.1-.2.1-.3l.2-.2h.4m-2.6-.5l.7.2c.1 0 .2.1.3.1.1.1.2.2.2.3.1.1.1.2.2.3 0 .1.1.3.1.4v.4c0 .1-.2.2-.3.3l-.2.2c-.1 0-.2.1-.3 0l-.7-.1c-.1 0-.2-.1-.3-.1s-.2-.2-.2-.3c-.1-.1-.1-.2-.2-.3 0-.1-.1-.3-.1-.4v-.4c0-.1.1-.2.1-.3l.2-.2c.3-.1.4-.1.5-.1m5.3 4l.7.1c.1 0 .2.1.3.1s.1.1.2.2.1.2.1.3c0 .1.1.3.1.4v.4c0 .1-.1.2-.1.3l-.2.2c-.1.1-.2.1-.3 0l-.7-.1c-.1 0-.2-.1-.3-.1s-.2-.2-.2-.2c-.1-.1-.1-.2-.1-.3 0-.1-.1-.3-.1-.4v-.4c0-.1.1-.2.1-.3l.2-.2c.1.1.2 0 .3 0M9 27.7l.7.1c.1 0 .2.1.3.1s.2.2.2.2c.1.1.1.2.1.3 0 .1.1.3.1.4v.4c0 .1-.1.2-.1.3l-.2.2c-.1 0-.2.1-.3 0l-.7-.1c-.1 0-.2-.1-.3-.1l-.2-.2c-.1-.1-.1-.2-.2-.3 0-.1-.1-.3-.1-.4v-.4c0-.1.1-.2.1-.3l.2-.2H9m-2.7-.4l.7.1c.1 0 .2.1.3.1l.2.2c.1.1.1.2.2.3 0 .1.1.3.1.4v.4c0 .1-.1.2-.1.3l-.2.2c-.1 0-.2.1-.3 0l-.7-.1c-.1 0-.2-.1-.3-.1-.1 0-.2-.1-.3-.2s-.1-.2-.2-.3c0-.1-.1-.3-.1-.4v-.4c0-.1.1-.2.1-.3.3-.1.3-.1.4-.2h.2m5.4 4l.7.1c.1 0 .2.1.3.1l.2.2c.1.1.1.2.1.3 0 .1.1.3.1.4v.4c0 .1-.1.2-.1.3l-.2.2c-.1 0-.2.1-.3 0l-.7-.1c-.1 0-.2-.1-.3-.1l-.2-.2c-.1-.1-.1-.2-.1-.3 0-.1-.1-.3-.1-.4v-.4c0-.1.1-.2.1-.3l.2-.2h.3m-2.6-.4l.7.1c.1 0 .2.1.3.1l.2.2c.1.1.1.2.2.3 0 .1.1.3.1.4v.4c0 .1-.1.2-.1.3s-.1.1-.2.2c-.3.1-.3.1-.4.1l-.7-.1c-.1 0-.2-.1-.3-.1l-.2-.2c-.1-.1-.1-.2-.2-.3 0-.1-.1-.3-.1-.4v-.4c0-.1.1-.2.1-.3l.3-.3h.3m-2.7-.4l.7.1c.1 0 .2.1.3.1l.2.2c.1.1.1.2.2.3 0 .1.1.3.1.4v.4c0 .1-.1.2-.1.3l-.2.2c-.1 0-.2.1-.3 0l-.7-.1c-.1 0-.2-.1-.3-.1s-.2-.1-.3-.2c-.1-.1-.1-.2-.2-.3s-.1-.3-.1-.4V31c0-.1.1-.2.1-.3l.2-.2h.4m5.4 3.9l.7.1c.1 0 .2.1.3.1s.1.1.2.2.1.2.1.3c0 .1.1.3.1.4v.4c0 .1-.1.2-.1.3l-.2.2c-.1 0-.2.1-.3 0l-.7-.1c-.1 0-.2-.1-.3-.1s-.2-.2-.2-.2c-.1-.1-.1-.2-.1-.3 0-.1-.1-.3-.1-.4v-.4c0-.1.1-.2.1-.3l.2-.2h.3m-2.6-.3l.7.1c.1 0 .2.1.3.1s.2.2.2.2c.1.1.1.2.2.3 0 .1.1.3.1.4v.4c0 .1-.1.2-.1.3s-.1.1-.2.2c-.1 0-.2.1-.3 0l-.9-.1c-.1 0-.1 0-.2-.1l-.2-.2c-.1-.1-.1-.2-.2-.3 0-.1-.1-.3-.1-.4v-.4c0-.1.1-.2.1-.3s.1-.1.2-.2c.2 0 .3-.1.4 0m-2.7-.4l.7.1c.1 0 .2.1.3.1l.2.2c.1.1.1.2.2.3.1.3.1.4.1.5v.4c0 .1-.1.2-.1.3l-.2.2c-.1 0-.2.1-.3 0l-.7-.1c-.1 0-.2-.1-.3-.1l-.2-.2c-.2-.1-.2-.2-.3-.4 0-.1-.1-.3-.1-.4v-.4c0-.1.1-.2.1-.3l.2-.2h.4m5.4 3.9l.7.1c.1 0 .2.1.3.1l.2.2c.1.1.1.2.1.3 0 .1.1.3.1.4v.4c0 .1-.1.2-.1.3l-.2.2c-.1 0-.2.1-.2 0H12c-.1 0-.2-.1-.3-.1l-.2-.2c-.1-.1-.1-.2-.1-.3 0-.1-.1-.3-.1-.4v-.4c0-.1.1-.2.1-.3l.2-.2c.1-.1.2-.1.3-.1m-5.3-.7l.7.1c.1 0 .2.1.3.1l.2.2c.1.2.2.3.2.4 0 .1.1.3.1.4v.4c0 .1-.1.2-.1.3l-.2.2c-.1 0-.2.1-.3 0l-.7-.1c-.1 0-.2-.1-.3-.1l-.2-.2c-.1-.1-.1-.2-.2-.3-.1-.2-.1-.3-.1-.5v-.4c0-.1.1-.2.1-.3l.2-.2h.3" fill="#f4aec8"/></g></svg>