<?xml version="1.0" encoding="utf-8"?>
<!-- Generator: Adobe Illustrator 23.0.4, SVG Export Plug-In . SVG Version: 6.00 Build 0)  -->
<svg version="1.1" id="Camada_1" xmlns="http://www.w3.org/2000/svg" xmlns:xlink="http://www.w3.org/1999/xlink" x="0px" y="0px"
	 viewBox="0 0 320 320" style="enable-background:new 0 0 320 320;" xml:space="preserve">
<style type="text/css">
	.st0{fill:#321A4C;}
	.st1{fill:#660099;}
	.st2{fill:#EC6494;}
	.st3{fill:#C299D6;}
	.st4{fill:#DA5794;}
	.st5{fill:#FF9600;}
	.st6{fill:#FADB4F;}
</style>
<path class="st0" d="M128.7,5.8H30.2C15.8,5.9,4.1,17.5,4.1,31.9l0.1,259c0,14.4,11.7,26.1,26.1,26.1h98.5
	c14.4,0,26.1-11.7,26.1-26.1l-0.1-259C154.8,17.5,143.1,5.8,128.7,5.8z"/>
<path class="st1" d="M138.6,5.5H40.1C25.7,5.6,14,17.3,14,31.7l0.1,259c0,14.4,11.7,26.1,26.1,26.1h98.5c14.4,0,26.1-11.7,26.1-26.1
	l-0.1-259C164.7,17.2,153,5.5,138.6,5.5L138.6,5.5z"/>
<path class="st2" d="M136.7,17.2h-9.6c-1.6,0-2.8,1.3-2.8,2.8v4c0,3.1-2.5,5.6-5.6,5.6H59.9c-3.1,0-5.6-2.5-5.6-5.6v-4
	c0-1.6-1.3-2.8-2.8-2.8h-9.6c-10.6,0-19.3,8.6-19.3,19.3l0.1,249.4c0,10.6,8.6,19.3,19.3,19.3h94.9c10.6,0,19.3-8.6,19.3-19.3
	l-0.1-249.4C155.9,25.8,147.3,17.2,136.7,17.2z"/>
<path class="st3" d="M81.6,23.2h16.6c0.4,0,0.7-0.3,0.7-0.7s-0.3-0.7-0.7-0.7H81.6c-0.4,0-0.7,0.3-0.7,0.7
	C80.8,22.9,81.1,23.2,81.6,23.2z M101.8,23.2h2c0.4,0,0.7-0.3,0.7-0.7s-0.3-0.7-0.7-0.7h-2c-0.4,0-0.7,0.3-0.7,0.7
	C101.1,22.9,101.4,23.2,101.8,23.2z"/>
<path class="st4" d="M156.11,72.11c-23.26,0.93-40.84,20.7-38.69,42.86c2.3,22.7,19.5,31,22.2,32.2c2.7,1.2,3.9,3.3,3,7.5
	c-0.4,2.1-2.2,3-3.8,3.3c-1.5,0.3-3.1,0.3-4.5-0.1c-3.4-0.9-13.4-3.3-28.8-7c-19.4-4.6-22.3,10.5-22.3,10.5l-1.7,6.6
	c-2.4,10.1,5.3,16.2,8.8,18.4c0.9,0.6,2,1,3.1,1.3c5.1,1.3,23,5.6,28.2,7c6,1.6,8.9,4.5,9.5,10.9c0.6,6.4-3.2,11-3.2,11
	c-4.2,5.1-26.4,31.9-30.1,36.1c-3.8,4.2-4.8,6.8-5.2,11.7c-0.4,4.9,1.9,7.9,3.3,10c1.4,2.1,5.3,5.2,8.5,7.5c3.1,2.3,8,3.2,12.4,2.6
	c4.4-0.6,8.5-3.8,9.9-5.5c1.5-1.7,23-28.3,24.5-30.1c1.22-1.46,2.3-3.31,4.96-4.12L156.11,72.11z"/>
<path class="st5" d="M191.58,185.58c1.2-1,2.6-1.7,4.2-2.1c5.4-1.4,22.2-5.5,27.8-6.9c6.7-1.6,15.9-7.9,11.9-24.4
	s-20.4-13.4-20.4-13.4s-27.1,6.4-32.7,7.7c-5.6,1.3-6.9-3.5-6.9-3.5s-1.7-4.9,3.6-7.6c9.4-4.8,21.5-17.6,21.6-36.8
	c0-19.2-17.5-37.7-41.6-37.8c-24.1,0-42.6,20.2-40.4,42.9c2.3,22.7,19.5,31,22.2,32.2s3.9,3.3,3,7.5c-0.4,2.1-2.2,3-3.8,3.3
	c-1.5,0.3-3.1,0.3-4.5-0.1c-3.4-0.9-13.4-3.3-28.8-7c-19.3-4.5-22.2,10.5-22.2,10.5l-1.7,6.6c-2.4,10.1,5.3,16.2,8.8,18.4
	c0.9,0.6,2,1,3.1,1.3c5.1,1.3,23,5.6,28.2,7c6,1.6,8.9,4.5,9.5,10.9s-3.2,11-3.2,11c-4.2,5.1-26.4,31.9-30.1,36.1
	c-3.8,4.2-4.8,6.8-5.2,11.7c-0.4,4.9,1.9,7.9,3.3,10s5.3,5.2,8.5,7.5c3.1,2.3,8,3.2,12.4,2.6s8.5-3.8,9.9-5.5
	c1.5-1.7,23-28.3,24.5-30.1s2.8-4.2,7.1-4.5c3.6-0.2,5.6,2.5,6.3,3.5c0.2,0.3,0.4,0.6,0.7,0.9c2.6,3.2,15.9,19.6,23,27.9
	c7.9,9.2,15.3,11.5,28.6,1.5c13.2-10,4-21.1,4-21.1s-26.7-31.6-31-37.8s-4.3-9.6-4.1-13.8
	C187.18,190.18,189.58,187.28,191.58,185.58L191.58,185.58z"/>
<path class="st6" d="M192,179c1.2-1,2.6-1.7,4.2-2.1c5.4-1.4,22.2-5.5,27.8-6.9c6.7-1.6,15.9-7.9,11.9-24.4s-20.4-13.4-20.4-13.4
	s-27.1,6.4-32.7,7.7c-5.6,1.3-6.9-3.5-6.9-3.5s-1.7-4.9,3.6-7.6c9.4-4.8,21.5-17.6,21.6-36.8c0-19.2-17.5-37.7-41.6-37.8
	c-24.1,0-42.6,20.2-40.4,42.9c2.3,22.7,19.5,31,22.2,32.2s3.9,3.3,3,7.5c-0.4,2.1-2.2,3-3.8,3.3c-1.5,0.3-3.1,0.3-4.5-0.1
	c-3.4-0.9-13.4-3.3-28.8-7C87.9,128.5,85,143.5,85,143.5l-1.7,6.6c-2.4,10.1,5.3,16.2,8.8,18.4c0.9,0.6,2,1,3.1,1.3
	c5.1,1.3,23,5.6,28.2,7c6,1.6,8.9,4.5,9.5,10.9s-3.2,11-3.2,11c-4.2,5.1-26.4,31.9-30.1,36.1c-3.8,4.2-4.8,6.8-5.2,11.7
	c-0.4,4.9,1.9,7.9,3.3,10c1.4,2.1,5.3,5.2,8.5,7.5c3.1,2.3,8,3.2,12.4,2.6s8.5-3.8,9.9-5.5c1.5-1.7,23-28.3,24.5-30.1
	s2.8-4.2,7.1-4.5c3.6-0.2,5.6,2.5,6.3,3.5c0.2,0.3,0.4,0.6,0.7,0.9c2.6,3.2,15.9,19.6,23,27.9c7.9,9.2,15.3,11.5,28.6,1.5
	c13.2-10,4-21.1,4-21.1s-26.7-31.6-31-37.8s-4.3-9.6-4.1-13.8C187.6,183.6,190,180.7,192,179L192,179z"/>
</svg>
