<?xml version="1.0" encoding="utf-8"?>
<!-- Generator: Adobe Illustrator 25.4.1, SVG Export Plug-In . SVG Version: 6.00 Build 0)  -->
<svg version="1.1" id="Layer_1" xmlns="http://www.w3.org/2000/svg" xmlns:xlink="http://www.w3.org/1999/xlink" x="0px" y="0px"
	 viewBox="0 0 252 252" style="enable-background:new 0 0 252 252;" xml:space="preserve">
<style type="text/css">
	.st0{fill:#FA6324;}
	.st1{fill:#FFAD33;}
	.st2{fill:#FADB4F;}
	.st3{fill:#FF9900;}
	.st4{fill:#CC1F59;}
	.st5{fill:#EB3D7D;}
	.st6{fill:#00ABDB;}
	.st7{fill:#6AC9E9;}
</style>
<path class="st0" d="M207.3,52.2H29.1c-4.3,0-7.9,3.6-7.9,7.9v126c0,4.3,3.6,7.9,7.9,7.9h178.3c4.3,0,7.9-3.6,7.9-7.9v-126
	C215.2,55.8,211.6,52.2,207.3,52.2z"/>
<path class="st1" d="M210.7,52.2H32.4c-4.3,0-7.9,3.6-7.9,7.9v126c0,4.3,3.6,7.9,7.9,7.9h178.3c4.3,0,7.9-3.6,7.9-7.9v-126
	C218.5,55.8,215,52.2,210.7,52.2L210.7,52.2z"/>
<path class="st2" d="M203.5,58.6H39.6c-4.3,0-7.9,3.6-7.9,7.9v101.9c0,4.3,3.6,7.9,7.9,7.9h163.9c4.3,0,7.9-3.6,7.9-7.9V66.5
	C211.4,62.2,207.8,58.6,203.5,58.6z"/>
<path class="st3" d="M62.8,141.4c0-4.7-3.8-8.6-8.6-8.6H24.6v53.3c0,4.3,3.6,7.9,7.9,7.9h30.4C62.9,194,62.8,141.4,62.8,141.4z"/>
<path class="st1" d="M62.8,141.4c0-4.7-3.8-8.6-8.6-8.6H31.7v35.6c0,4.3,3.6,7.9,7.9,7.9h23.2C62.8,176.3,62.8,141.4,62.8,141.4z"/>
<path class="st0" d="M132.2,186.5h-21c-0.7,0-1.4-0.7-1.4-1.4v-0.2c0-0.7,0.7-1.4,1.4-1.4h21c0.7,0,1.4,0.7,1.4,1.4v0.2
	C133.6,185.8,132.9,186.5,132.2,186.5z"/>
<path class="st4" d="M43.7,135.3H11.3c-4.7,0-8.6,3.8-8.6,8.6v85.2c0,4.7,3.8,8.6,8.6,8.6h32.4c4.7,0,8.6-3.8,8.6-8.6v-85.2
	C52.3,139.1,48.4,135.3,43.7,135.3z"/>
<path class="st5" d="M46.9,135.2H14.5c-4.7,0-8.6,3.8-8.6,8.6L6,229c0,4.7,3.8,8.6,8.6,8.6H47c4.7,0,8.6-3.8,8.6-8.6v-85.2
	C55.5,139,51.7,135.2,46.9,135.2z"/>
<path class="st2" d="M46.3,139h-3.2c-0.5,0-0.9,0.4-0.9,0.9v1.3c0,1-0.8,1.8-1.8,1.8H21.1c-1,0-1.8-0.8-1.8-1.8v-1.3
	c0-0.5-0.4-0.9-0.9-0.9h-3.2c-3.5,0-6.3,2.8-6.3,6.3v82c0,3.5,2.8,6.3,6.3,6.3h31.2c3.5,0,6.3-2.8,6.3-6.3v-82
	C52.6,141.9,49.8,139,46.3,139z"/>
<path class="st2" d="M28.2,141h5.5c0.1,0,0.2-0.1,0.2-0.2s-0.1-0.2-0.2-0.2h-5.5c-0.1,0-0.2,0.1-0.2,0.2
	C27.9,140.9,28.1,141,28.2,141z M34.9,141h0.7c0.1,0,0.2-0.1,0.2-0.2s-0.1-0.2-0.2-0.2h-0.7c-0.1,0-0.2,0.1-0.2,0.2
	C34.6,140.9,34.7,141,34.9,141z"/>
<path class="st5" d="M121.5,116.9c-6.3,0-11.8,2.4-16.6,6.3c-1.6,1.2-1.6,3.6,0,4.7l0.4,0.4c1.2,1.2,3.2,1.2,4.7,0
	c3.2-2.8,7.1-4.3,11.5-4.3c4.3,0,8.3,1.6,11.5,4.3c1.2,1.2,3.2,1.2,4.7,0l0.4-0.4c1.2-1.2,1.2-3.6,0-4.7
	C133.3,119.3,127.8,116.9,121.5,116.9z"/>
<path class="st5" d="M121.5,100.3c-10.7,0-20.5,4.3-28,11.1c-1.6,1.2-1.6,3.6,0,4.7l0.4,0.4c1.2,1.2,3.2,1.2,4.3,0
	c5.9-5.5,14.2-9.1,23.3-9.1s17,3.6,23.3,9.1c1.2,1.2,3.2,1.2,4.3,0l0.4-0.4c1.2-1.2,1.2-3.6,0-4.7
	C142,104.6,132.2,100.3,121.5,100.3z"/>
<path class="st5" d="M82.4,105.4c1.6,1.6,3.6,1.6,5.1,0.4c8.7-8.3,20.9-13.4,34-13.4s24.9,5.1,34,13.4c1.2,1.2,3.6,1.2,4.7,0
	l0.4-0.4c1.2-1.2,1.2-3.6,0-4.7c-10.3-9.5-23.7-15.4-38.7-15.4s-28.8,5.9-38.7,15.4C81.2,101.9,81.2,103.9,82.4,105.4z"/>
<circle class="st5" cx="121.5" cy="141.4" r="6.3"/>
<path class="st6" d="M37,188.6l0.8-0.4c0.9-0.3,4-0.9,5-1.2c1.2-0.3,2.9-1.5,2.1-4.4c-0.7-2.9-3.7-2.4-3.7-2.4s-4.9,1.2-5.8,1.3
	c-1.1,0.3-1.2-0.7-1.2-0.7s-0.3-0.9,0.7-1.3c1.7-0.8,3.8-3.2,3.8-6.6c0-3.4-3.2-6.8-7.4-6.8c-4.4,0-7.7,3.6-7.3,7.7
	c0.4,4.1,3.4,5.6,4,5.7c0.5,0.3,0.7,0.5,0.5,1.3c-0.1,0.4-0.4,0.5-0.7,0.7H27c-0.7-0.1-2.4-0.7-5.2-1.2c-3.4-0.8-4,1.9-4,1.9
	l-0.4,1.2c-0.4,1.9,0.9,2.9,1.6,3.3c0.1,0.1,0.4,0.1,0.5,0.3c0.9,0.3,4.1,1.1,5,1.2c1.1,0.3,1.6,0.8,1.7,2s-0.5,2-0.5,2
	c-0.8,0.9-4.8,5.7-5.4,6.5c-0.7,0.8-0.8,1.2-0.9,2.1c-0.1,0.9,0.4,1.5,0.5,1.9c0.3,0.4,0.9,0.9,1.5,1.3c0.5,0.4,1.5,0.5,2.3,0.4
	s1.5-0.7,1.7-0.9c0.3-0.3,4.1-5,4.4-5.4c0.3-0.3,0.5-0.8,1.3-0.8c0.7,0,1.1,0.4,1.2,0.7l0.1,0.1c0.5,0.5,2.9,3.4,4.1,5
	c1.5,1.6,2.8,2.1,5.2,0.3s0.7-3.7,0.7-3.7s-4.8-5.7-5.6-6.8s-0.8-1.7-0.8-2.5C36.2,189.4,36.7,188.9,37,188.6L37,188.6z"/>
<path class="st3" d="M218.5,86.7c-10.9,17.2-52.1,84.4-66.2,107.3h58.3c4.3,0,7.9-3.6,7.9-7.9V86.7z"/>
<path class="st1" d="M211.4,98.2c-12.3,19.8-33.6,54.5-48.2,78.1h40.3c4.3,0,7.9-3.6,7.9-7.9V98.2z"/>
<g>
	<path class="st7" d="M243.9,108.4c-0.8,0-21.4,1.6-22.4,1.8c-1,0.3-2.1,0.8-2.9,1.6c-1,0.8-1.8,1.6-2.6,2.6s-1.3,2.1-1.8,3.4
		c0,0-54,116.3-54.2,117.3s1.8,4.2,3.1,5.5c1.8,2.1,4.7,3.1,5.5,3.4l17.4,5c0.7,0.2,3.3,1.1,5.7,1c0.2,0,0.4,0,0.6-0.1
		c10.2-1.9,16.3-8.8,34.1-53.9c17.5-43.5,25-70.1,24.3-76.9C249.9,113.1,243.6,108.6,243.9,108.4z"/>
	<path class="st7" d="M220.7,112.5l9.6-23.7c0.5-1.6-0.3-2.9-1.8-3.1c-1-0.3-2.1,0.5-2.3,1.3l-9.6,23.7c-0.5,1.6,0.3,2.9,1.8,3.1
		C219.4,114.1,220.2,113.3,220.7,112.5z"/>
	<path class="st6" d="M241,107.3c0.8,0,1.6,0.5,2.3,1c0.5,0.5,1,1.3,1.3,2.1s0.3,1.8,0.3,2.9c0,1.3-0.3,2.3-0.8,3.7l-49.3,120.2
		c-0.5,1.3-1.3,2.3-2.1,3.4c-0.8,1-1.6,1.8-2.6,2.6c-0.8,0.5-1.8,1-2.9,1.3c-1,0.3-2.1,0.3-2.9,0l-21.9-6c-0.8-0.3-1.6-0.5-2.1-1.3
		c-0.5-0.5-0.8-1.3-1-2.3c-0.3-0.8-0.5-2.1-0.3-3.1c0.3-1.3,0.5-2.3,1-3.7l48-115.5c0.5-1.3,1-2.3,1.8-3.4c0.8-1,1.8-1.8,2.6-2.6
		c1-0.8,1.8-1.3,2.9-1.6c1-0.3,2.1-0.3,2.9-0.3L241,107.3"/>
	<path class="st2" d="M235.3,126.4c0.5,0,0.8,0.3,1.3,0.5c0.3,0.3,0.5,0.5,0.5,0.8v1c0,0.5,0,0.8-0.3,1.3l-8.9,21.6
		c-0.3,0.5-0.5,1-0.8,1.3c-0.3,0.5-0.8,0.8-1,1s-0.8,0.5-1,0.5h-1l-26.6-4.7c-0.3-0.3-0.5-0.3-0.8-0.5c-0.3-0.3-0.5-0.5-0.5-0.8v-1
		c0-0.5,0-0.8,0.3-1.3l8.6-20.9c0.3-0.5,0.5-1,0.8-1.3c0.3-0.5,0.5-0.8,0.8-1c0.3-0.3,0.8-0.5,1-0.5h1L235.3,126.4 M230.6,112
		C230.6,112,230.6,112.3,230.6,112c0.3,0.3,0.3,0.3,0.5,0.3v0.6l-0.3,0.3l-0.3,0.3c0,0.3-0.3,0.3-0.3,0.3h-0.3l-6.8-0.8H223
		c-0.3,0-0.3-0.3-0.3-0.3V112l0.3-0.3l0.3-0.3c0-0.3,0.3-0.3,0.3-0.3h0.3L230.6,112 M180.5,234C180.5,234,180.8,234,180.5,234
		c0.3,0.3,0.3,0.5,0.3,0.5v0.6l-0.3,0.3l-0.3,0.3c0,0.3-0.3,0.3-0.3,0.3h-0.3l-6.6-2l-0.3-0.3V233l0.3-0.3l0.3-0.3
		c0-0.3,0.3-0.3,0.3-0.3h0.3L180.5,234 M195.4,167.8c0.5,0,0.8,0.3,0.8,0.5c0.3,0.3,0.5,0.5,0.5,0.8v1c0,0.5,0,0.8-0.3,1.3
		s-0.5,1-0.8,1.3l-1,1c-0.3,0.3-0.8,0.5-1,0.5h-1l-2.3-0.5c-0.3-0.3-0.5-0.3-0.8-0.5c-0.3-0.3-0.5-0.5-0.5-0.8v-1
		c0-0.5,0-0.8,0.3-1.3s0.5-1,0.8-1.3l1-1c0.3-0.3,0.8-0.5,1-0.5h1L195.4,167.8 M204.5,169.4c0.5,0.3,0.8,0.3,0.8,0.5
		c0.3,0.3,0.5,0.5,0.5,0.8v1c0,0.5,0,0.8-0.3,1.3s-0.5,1-0.8,1.3c-0.3,0.5-0.8,0.8-1,1c-0.3,0.3-0.8,0.5-1,0.5h-1l-2.6-0.5
		c-0.3-0.3-0.5-0.3-0.8-0.5c-0.3-0.3-0.5-0.5-0.5-0.8v-1c0-0.5,0-0.8,0.3-1.3s0.5-1,0.8-1.3l1-1c0.3-0.3,0.8-0.5,1-0.5h1
		L204.5,169.4 M213.9,171.2c0.5,0.3,0.8,0.3,0.8,0.5c0.3,0.3,0.5,0.5,0.5,0.8v1c0,0.5,0,0.8-0.3,1.3s-0.5,1-0.8,1.3
		c-0.3,0.5-0.8,0.8-1,1s-0.8,0.5-1,0.5h-1l-2.6-0.5c-0.3-0.3-0.5-0.3-0.8-0.5c-0.3-0.3-0.5-0.5-0.5-0.8v-1c0-0.5,0-0.8,0.3-1.3
		s0.5-1,0.8-1.3c0.3-0.5,0.8-0.8,1-1c0.3-0.3,0.8-0.5,1-0.5h1L213.9,171.2 M191.2,178c0.3,0,0.5,0.3,1,0.5c0.3,0.3,0.5,0.5,0.5,0.8
		v1c0,0.5,0,0.8-0.3,1.3s-0.5,1-0.8,1.3l-1,1c-0.3,0.3-0.8,0.5-1,0.5h-1L186,184c-0.3-0.3-0.5-0.3-0.8-0.5c-0.3-0.3-0.5-0.5-0.5-0.8
		v-1c0-0.5,0-0.8,0.3-1.3s0.5-1,0.8-1.3l1-1c0.3-0.3,0.8-0.5,1-0.5h1L191.2,178 M200.3,179.8c0.3,0,0.8,0.3,0.8,0.5
		c0.3,0.3,0.5,0.5,0.5,0.8v1c0,0.5,0,1-0.3,1.3c-0.3,0.5-0.5,1-0.8,1.3c-0.3,0.5-0.8,0.8-1,1s-0.8,0.5-1,0.5h-1l-2.6-0.5
		c-0.3-0.3-0.5-0.3-0.8-0.5c-0.3-0.3-0.5-0.5-0.5-0.8v-1c0-0.5,0-0.8,0.3-1.3s0.5-1,0.8-1.3l1-1c0.3-0.3,0.8-0.5,1-0.5h1
		L200.3,179.8 M209.7,181.6c0.3,0.3,0.5,0.3,0.8,0.5c0.3,0.3,0.5,0.5,0.5,0.8v1c0,0.5,0,0.8-0.3,1.3s-0.5,1-0.8,1.3
		c-0.3,0.5-0.8,0.8-1,1s-0.8,0.5-1,0.5h-1l-2.6-0.5c-0.3-0.3-0.5-0.3-0.8-0.5c-0.3-0.3-0.5-0.5-0.5-0.8v-1c0-0.5,0-0.8,0.3-1.3
		s0.5-1,0.8-1.3c0.3-0.5,0.8-0.8,1-1c0.3-0.3,0.8-0.5,1-0.5h1L209.7,181.6 M187,188.2c0.3,0.3,0.5,0.3,0.8,0.5
		c0.3,0.3,0.5,0.5,0.5,0.8v1c0,0.5,0,0.8-0.3,1.3s-0.5,1-0.8,1.3l-1,1c-0.3,0.3-0.8,0.5-1,0.5h-1l-2.3-0.5c-0.3-0.3-0.5-0.3-0.8-0.5
		c-0.3-0.3-0.5-0.5-0.5-0.8v-1c0-0.5,0-0.8,0.3-1.3s0.5-1,0.8-1.3l1-1c0.3-0.3,0.8-0.5,1-0.5h1L187,188.2 M196.2,190.2
		c0.3,0,0.5,0.3,0.8,0.5c0.3,0.3,0.5,0.5,0.5,0.8v1c0,0.5,0,0.8-0.3,1.3s-0.5,1-0.8,1.3c-0.3,0.5-0.8,0.8-1,1s-0.8,0.5-1,0.5h-1
		l-2.6-0.5c-0.3-0.3-0.5-0.3-0.8-0.5c-0.3-0.3-0.5-0.5-0.5-0.8v-1c0-0.5,0-0.8,0.3-1.3s0.5-1,0.8-1.3l1-1c0.3-0.3,0.8-0.5,1-0.5h1
		L196.2,190.2 M205.3,192.3c0.5,0,0.8,0,1,0.5c0.3,0.3,0.5,0.5,0.5,0.8v1c0,0.5-0.3,0.8-0.5,1.3s-0.5,1-0.8,1.3
		c-0.3,0.5-0.8,0.8-1,1s-0.8,0.5-1,0.5h-1l-2.6-0.5c-0.3,0-0.5-0.3-0.8-0.5c-0.3-0.3-0.5-0.5-0.5-0.8v-1c0-0.5,0-0.8,0.3-1.3
		s0.5-1,0.8-1.3c0.3-0.5,0.8-0.8,1-1c0.3-0.3,0.8-0.5,1-0.5h1L205.3,192.3 M182.9,198.6c0.3,0,0.5,0.3,0.8,0.5
		c0.3,0.3,0.5,0.5,0.5,0.8v1c0,0.5,0,0.8-0.3,1.3s-0.5,1-0.8,1.3l-1,1c-0.3,0.3-0.8,0.5-1,0.5h-1l-2.3-0.5c-0.3-0.3-0.5-0.3-0.8-0.5
		c-0.3-0.3-0.5-0.5-0.5-0.8v-1c0-0.5,0-0.8,0.3-1.3s0.5-1,0.8-1.3l1-1c0.3-0.3,0.8-0.5,1-0.5h1L182.9,198.6 M191.7,200.7
		c0.5,0,0.8,0.3,0.8,0.5c0.3,0.3,0.5,0.5,0.5,0.8v1c0,0.5,0,0.8-0.3,1.3s-0.5,1-0.8,1.3c-0.3,0.5-0.8,0.8-1,1s-0.8,0.5-1,0.5h-1
		l-2.6-0.5c-0.3,0-0.5-0.3-0.8-0.5c-0.3-0.3-0.5-0.5-0.5-0.8v-1c0-0.5,0-0.8,0.3-1.3s0.5-1,0.8-1.3l1-1c0.3-0.3,0.8-0.5,1-0.5h1
		L191.7,200.7 M201.1,202.8c0.3,0,0.5,0.3,0.8,0.3s0.5,0.5,0.5,0.8v1.3c0,0.3,0,0.8-0.3,1.3s-0.5,1-0.8,1.3c-0.3,0.5-0.8,0.8-1,1
		s-0.8,0.5-1,0.5h-1l-2.6-0.5c-0.3,0-0.5-0.3-0.8-0.5c-0.3-0.3-0.5-0.5-0.5-0.8v-1c0-0.5,0-0.8,0.3-1.3s0.5-1,0.8-1.3
		c0.3-0.5,0.8-0.8,1-1c0.3-0.3,0.8-0.5,1-0.5h1L201.1,202.8 M178.4,209c0.3,0,0.8,0,0.8,0.3c0.3,0.3,0.5,0.5,0.5,0.8v1
		c0,0.5,0,0.8-0.3,1.3s-0.5,1-0.8,1.3l-1,1c-0.3,0.3-0.8,0.5-1,0.5h-1l-2.3-0.5c-0.3,0-0.5-0.3-0.8-0.5c-0.3-0.3-0.5-0.5-0.5-0.8v-1
		c0-0.5,0-0.8,0.3-1.3s0.5-1,0.8-1.3c0.5-0.3,0.8-0.5,1-0.8c0.3-0.3,0.8-0.5,1-0.5h1L178.4,209 M196.7,213.2
		c0.5,0.3,0.8,0.3,0.8,0.5c0.3,0,0.5,0.5,0.5,0.8v1.3c0,0.3,0,0.8-0.3,1.3s-0.5,1-0.8,1.3c-0.3,0.5-0.8,0.8-1,1
		c-0.3,0.3-0.8,0.5-1,0.5h-1l-2.6-0.5c-0.3,0-0.5-0.3-0.8-0.5c-0.3,0-0.5-0.5-0.5-0.8v-1.3c0-0.5,0-0.8,0.3-1.3s0.5-1,0.8-1.3
		c0.3-0.5,0.8-0.8,1-1s0.8-0.5,1-0.5h1L196.7,213.2"/>
</g>
</svg>
