<svg version="1.1" id="Layer_1" xmlns="http://www.w3.org/2000/svg" x="0" y="0" viewBox="0 0 48 48" xml:space="preserve"><style>.st3{fill:#f7d84f}.st4{fill:#660096}</style><g id="aca449e8-3934-4baf-bc00-79407dcb71db_1_"><g id="acde60fc-dc48-4be4-a3ca-06a2e87be073_1_"><path d="M2.4 17.3h34.8c.6 0 1.1.5 1.1 1.1v27.7c0 .6-.5 1.1-1.1 1.1H2.4c-.6 0-1.1-.5-1.1-1.1V18.5c0-.6.5-1.2 1.1-1.2z" fill="#791fa2"/><path d="M3.7 47.2c-.1 0-.2-.1-.2-.2V18.6c0-.1.1-.2.2-.2s.3.1.3.2V47c0 .1-.1.2-.3.2zm-1.3 0c-.1 0-.2-.1-.2-.2V18.6c0-.1.1-.2.2-.2s.2.1.2.2V47c.1.1 0 .2-.2.2zm3.8-29.9H41c.6 0 1.1.5 1.1 1.1v27.7c0 .6-.5 1.1-1.1 1.1H6.2c-.6 0-1.1-.5-1.1-1.1V18.5c0-.6.4-1.2 1.1-1.2z" fill="#8233aa"/><path d="M2.3 9.3h34.5c1.1 0 1.9.9 1.9 1.9V17c0 1.1-.9 1.9-1.9 1.9H2.3C1.2 18.9.4 18 .4 17v-5.8c0-1.1.9-1.9 1.9-1.9z" fill="#fa3"/><path class="st3" d="M7.2 9.3h34.5c1.1 0 1.9.9 1.9 1.9V17c0 1.1-.9 1.9-1.9 1.9H7.2c-1.1 0-1.9-.9-1.9-1.9v-5.8c0-1.1.8-1.9 1.9-1.9z"/><path class="st4" d="M39.7 39.6H7.2c-.2 0-.4-.2-.4-.4s.2-.4.4-.4h32.5c.2 0 .4.2.4.4 0 .3-.2.4-.4.4zm0-5.8H7.2c-.2 0-.4-.2-.4-.4s.2-.4.4-.4h32.5c.2 0 .4.2.4.4s-.2.4-.4.4zm0-5.7H7.2c-.2 0-.4-.2-.4-.4s.2-.4.4-.4h32.5c.2 0 .4.2.4.4s-.2.4-.4.4z"/><path class="st4" d="M33.4 45.1c-.2 0-.4-.2-.4-.4V21.9c0-.2.2-.4.4-.4s.4.2.4.4v22.8c0 .2-.2.4-.4.4zm-6.6 0c-.2 0-.4-.2-.4-.4V21.9c0-.2.2-.4.4-.4s.4.2.4.4v22.8c-.1.2-.2.4-.4.4zm-6.6 0c-.2 0-.4-.2-.4-.4V21.9c0-.2.2-.4.4-.4s.4.2.4.4v22.8c0 .2-.2.4-.4.4zm-6.6 0c-.2 0-.4-.2-.4-.4V21.9c0-.2.2-.4.4-.4s.4.2.4.4v22.8c0 .2-.2.4-.4.4z"/><path class="st4" d="M39.9 45.2H7c-.2 0-.4-.2-.4-.4V22c0-.2.2-.4.4-.4h32.9c.2 0 .4.2.4.4v22.9c0 .2-.2.3-.4.3zm-32.6-.7h32.2V22.3H7.3v22.2z"/></g></g><path d="M22.3 24.2l-5.6-5.6c-3.7-3.7-3.7-9.8 0-13.5 3.7-3.7 9.8-3.7 13.5 0 3.7 3.7 3.7 9.8 0 13.5l-5.6 5.6c-.8.6-1.7.6-2.3 0z" fill="#e83d7d"/><path d="M20.4 16.7c-.4-.2-.5-.6-.3-.9l.3-.6c.2-.3.5-.4.9-.2.7.3 1.4.5 2.1.5.6 0 1.2-.2 1.2-.7 0-.3-.2-.4-.5-.6-.3-.1-.8-.3-1.4-.4-1.3-.3-2.5-1-2.5-2.6 0-1.5 1.1-2.2 2.4-2.5V8c0-.3.3-.6.7-.6h.6c.3 0 .7.3.7.6v.8c.6.1 1.1.2 1.5.4.4.1.6.4.4.9l-.2.6c-.1.4-.5.6-.9.4-.7-.3-1.4-.4-2-.4-.7 0-1.2.2-1.2.6 0 .6.7.8 2 1.1 1.4.3 2.5.9 2.5 2.4 0 1.6-1 2.3-2.4 2.6v.6c0 .3-.3.6-.7.6H23c-.3 0-.7-.3-.7-.6v-.7c-.6-.1-1.3-.3-1.9-.6z" fill="#c91f59"/><path class="st3" d="M20.4 16c-.4-.2-.5-.6-.3-.9l.3-.6c.2-.3.5-.4.9-.2.7.3 1.4.5 2.1.5.6 0 1.2-.2 1.2-.7 0-.3-.2-.4-.5-.6-.3-.1-.8-.3-1.4-.4-1.3-.3-2.5-1-2.5-2.6 0-1.5 1.1-2.2 2.4-2.5v-.7c0-.3.3-.6.7-.6h.6c.3 0 .7.3.7.6v.8c.6.1 1.1.2 1.5.4.4.1.6.4.4.9l-.2.6c-.1.4-.5.6-.9.4-.7-.3-1.4-.4-2-.4-.7 0-1.2.2-1.2.6 0 .6.7.8 2 1.1 1.4.3 2.5.9 2.5 2.4 0 1.6-1 2.3-2.4 2.6v.8c0 .3-.3.6-.7.6H23c-.3 0-.7-.3-.7-.6v-.7c-.6-.4-1.3-.5-1.9-.8z"/></svg>