<?xml version="1.0" encoding="utf-8"?>
<!-- Generator: Adobe Illustrator 22.1.0, SVG Export Plug-In . SVG Version: 6.00 Build 0)  -->
<svg version="1.1" id="Layer_1" xmlns="http://www.w3.org/2000/svg" xmlns:xlink="http://www.w3.org/1999/xlink" x="0px" y="0px"
	 viewBox="0 0 108 108" style="enable-background:new 0 0 108 108;" xml:space="preserve">
<style type="text/css">
	.st0{fill:#FF9900;}
	.st1{fill:#FADB4F;}
	.st2{fill:#EDC756;}
	.st3{fill:#F18B0E;}
	.st4{fill:#EB3D7D;}
</style>
<path class="st0" d="M106.3,28.6L78.1,18.2v0.2L49,29.1l-26.9-9.9c-1.2-0.4-2.4,0.5-2.4,1.8v74.8c0,0.8,0.5,1.5,1.2,1.8L49,107.9
	h0.1v-0.1l29.2-10.7l26.9,9.8c1.2,0.4,2.4-0.5,2.4-1.8V30.4C107.6,29.6,107.1,28.9,106.3,28.6z"/>
<path class="st1" d="M78.3,97.1L49,107.9V29.1l29.3-10.7V97.1z"/>
<path class="st2" d="M78.3,18.4l-26.5,9.7c-0.1,6.8,2.8,13.5,8.6,18L78,59.7l0.3-0.4V18.4z"/>
<path class="st3" d="M104.9,28.1l-26.6-9.7v41l17.6-13.2C101.9,41.8,104.9,35,104.9,28.1z"/>
<path class="st4" d="M93.9,12.9c-8.7-8.7-22.8-8.7-31.5,0s-8.7,22.8,0,31.5l15.3,15.3c0.3,0.3,0.7,0.3,1,0L94,44.4
	C102.6,35.7,102.6,21.6,93.9,12.9z"/>
<circle class="st1" cx="78.1" cy="28.5" r="10.7"/>
</svg>
