<?xml version="1.0" encoding="utf-8"?>
<!-- Generator: Adobe Illustrator 24.3.0, SVG Export Plug-In . SVG Version: 6.00 Build 0)  -->
<svg version="1.1" id="Layer_1" xmlns="http://www.w3.org/2000/svg" xmlns:xlink="http://www.w3.org/1999/xlink" x="0px" y="0px"
	 viewBox="0 0 320 320" style="enable-background:new 0 0 320 320;" xml:space="preserve">
<style type="text/css">
	.st0{fill:#660096;}
	.st1{fill:#FADB4F;}
	.st2{fill:#00ABDB;}
	.st3{fill:#EB3D7D;}
	.st4{fill:#8533AD;}
	.st5{fill:#461E5F;}
</style>
<g>
	<g>
		<path class="st0" d="M258.7,217.4h-240c-7.2,0-13-5.8-13-13V59.6c0-7.2,5.8-13,13-13h240c7.2,0,13,5.8,13,13v144.8
			C271.7,211.6,265.9,217.4,258.7,217.4z"/>
		<path class="st1" d="M62.6,139.6H37.1c-3.5,0-6.3-2.8-6.3-6.3V111c0-3.5,2.8-6.3,6.3-6.3h25.5c3.5,0,6.3,2.8,6.3,6.3v22.3
			C68.9,136.8,66.1,139.6,62.6,139.6z"/>
		<path class="st2" d="M71.2,162.6H34.4c-1.5,0-2.8-1.2-2.8-2.8v0c0-1.5,1.2-2.8,2.8-2.8h36.8c1.5,0,2.8,1.2,2.8,2.8v0
			C74,161.3,72.7,162.6,71.2,162.6z"/>
		<path class="st2" d="M160.5,186.3H34.4c-1.5,0-2.8-1.2-2.8-2.8l0,0c0-1.5,1.2-2.8,2.8-2.8h126.1c1.5,0,2.8,1.2,2.8,2.8l0,0
			C163.3,185.1,162.1,186.3,160.5,186.3z"/>
		<path class="st2" d="M122.2,162.6H85.4c-1.5,0-2.8-1.2-2.8-2.8v0c0-1.5,1.2-2.8,2.8-2.8h36.8c1.5,0,2.8,1.2,2.8,2.8v0
			C124.9,161.3,123.7,162.6,122.2,162.6z"/>
		<path class="st2" d="M173.1,162.6h-36.8c-1.5,0-2.8-1.2-2.8-2.8v0c0-1.5,1.2-2.8,2.8-2.8h36.8c1.5,0,2.8,1.2,2.8,2.8v0
			C175.9,161.3,174.6,162.6,173.1,162.6z"/>
		<path class="st2" d="M224.1,162.6h-36.8c-1.5,0-2.8-1.2-2.8-2.8v0c0-1.5,1.2-2.8,2.8-2.8h36.8c1.5,0,2.8,1.2,2.8,2.8v0
			C226.8,161.3,225.6,162.6,224.1,162.6z"/>
	</g>
	<circle class="st3" cx="211.8" cy="86.1" r="17"/>
	<circle class="st1" cx="237.2" cy="86.1" r="17"/>
</g>
<g>
	<path class="st4" d="M303.8,286.6h-240c-7.2,0-13-5.8-13-13V128.8c0-7.2,5.8-13,13-13h240c7.2,0,13,5.8,13,13v144.8
		C316.9,280.8,311,286.6,303.8,286.6z"/>
	<rect x="50.9" y="145.4" class="st5" width="266" height="38"/>
	<path class="st3" d="M72.5,220.3h222.7c2.6,0,4.7-2.1,4.7-4.7v-15.9c0-2.6-2.1-4.7-4.7-4.7H72.5c-2.6,0-4.7,2.1-4.7,4.7v15.9
		C67.8,218.2,69.9,220.3,72.5,220.3z"/>
	<path class="st2" d="M274.6,269.4h19.9c3,0,5.3-2.4,5.3-5.3v-14.7c0-3-2.4-5.3-5.3-5.3h-19.9c-3,0-5.3,2.4-5.3,5.3v14.7
		C269.3,267,271.7,269.4,274.6,269.4z"/>
	<path class="st5" d="M202.3,253H71.6c-1.3,0-2.4-1.1-2.4-2.4l0,0c0-1.3,1.1-2.4,2.4-2.4h130.7c1.3,0,2.4,1.1,2.4,2.4l0,0
		C204.7,251.9,203.6,253,202.3,253z"/>
	<path class="st5" d="M158.4,265.4H71.6c-1.3,0-2.4-1.1-2.4-2.4v0c0-1.3,1.1-2.4,2.4-2.4h86.7c1.3,0,2.4,1.1,2.4,2.4v0
		C160.8,264.4,159.7,265.4,158.4,265.4z"/>
</g>
</svg>
