<svg version="1.1" id="Layer_1" xmlns="http://www.w3.org/2000/svg" x="0" y="0" viewBox="0 0 48 48" xml:space="preserve"><style>.st0{fill:#461e5f}</style><path class="st0" d="M18.9 1.2H4.2C2 1.2.3 2.9.3 5.1v38.7c0 2.2 1.7 3.9 3.9 3.9h14.7c2.2 0 3.9-1.7 3.9-3.9V5.1c0-2.2-1.7-3.9-3.9-3.9z"/><path d="M20.4 1.1H5.7C3.5 1.1 1.8 2.9 1.8 5v38.7c0 2.2 1.7 3.9 3.9 3.9h14.7c2.2 0 3.9-1.7 3.9-3.9V5c0-2.1-1.8-3.9-3.9-3.9z" fill="#660096"/><path d="M20.1 2.9h-1.4c-.2 0-.4.2-.4.4v.6c0 .5-.4.8-.8.8H8.7c-.5 0-.8-.4-.8-.8v-.6c0-.2-.2-.4-.4-.4H6.1c-1.6 0-2.9 1.3-2.9 2.9V43c0 1.6 1.3 2.9 2.9 2.9h14.2c1.6 0 2.9-1.3 2.9-2.9V5.8c-.2-1.7-1.5-2.9-3.1-2.9z" fill="#ec6494"/><path class="st0" d="M24.3 16.4h-9.9c-.6 0-1.2.2-1.6.7l-7.1 7.8c-.7.8-.7 2 0 2.8l7.1 7.8c.4.4 1 .7 1.6.7h9.9V16.4z"/><path d="M23 16.4h-8.6c-.6 0-1.2.2-1.6.7l-7.1 7.8c-.7.8-.7 2 0 2.8l7.1 7.8c.4.4 1 .7 1.6.7H23V16.4z" fill="#da5794"/><path d="M14.4 13.9h19.5c1.2 0 2.8.7 2.8 1.8v15.1c0 1.2-1.7 2.8-2.8 2.8H14.4c-.6 0-1.2-.2-1.6-.7l-7.1-7.8c-.7-.8-.7-2 0-2.8l7.1-7.8c.4-.3 1-.6 1.6-.6z" fill="#ff9600"/><path d="M15.1 13h19.5c1.2 0 2.1.9 2.1 2.1v15.5c0 1.2-.9 2.1-2.1 2.1H15.1c-.6 0-1.2-.2-1.6-.7l-7.1-7.8c-.7-.8-.7-2 0-2.8l7.1-7.8c.5-.3 1-.6 1.6-.6z" fill="#f7d84f"/><g><path d="M19.4 28c-.5-.3-.6-.7-.4-1.1l.3-.7c.2-.5.6-.6 1.2-.3.8.3 1.8.6 2.7.6.8 0 1.5-.2 1.5-.8 0-.4-.2-.5-.6-.7-.3-.2-.9-.3-1.7-.5-1.7-.4-3.2-1.2-3.2-3.2 0-1.8 1.3-2.8 3-3.1v-1c0-.4.4-.8.8-.8h.8c.5 0 .9.3.9.8v1c.7.1 1.4.3 2 .5.5.2.7.5.6 1.1l-.2.7c-.2.5-.6.7-1.2.5-.8-.3-1.7-.6-2.5-.6-.9 0-1.5.2-1.5.8 0 .8.8.9 2.5 1.4 1.7.4 3.2 1.1 3.2 3 0 2-1.2 2.9-3 3.2v1c0 .5-.4.8-.9.8h-.8c-.5 0-.9-.3-.9-.8v-.9c-.9-.2-1.8-.5-2.6-.9z" fill="#eac456"/></g><g><path d="M19.4 27.4c-.5-.3-.6-.7-.4-1.1l.3-.7c.2-.5.6-.6 1.2-.3.8.3 1.8.6 2.7.6.8 0 1.5-.2 1.5-.8 0-.4-.2-.5-.6-.7-.3-.2-.9-.3-1.7-.5-1.7-.4-3.2-1.2-3.2-3.2 0-1.8 1.3-2.8 3-3.1v-1c0-.4.4-.8.8-.8h.8c.5 0 .9.3.9.8v1c.7.1 1.4.3 2 .5.5.2.7.5.6 1.1l-.2.7c-.2.5-.6.7-1.2.5-.8-.3-1.7-.6-2.5-.6-.9 0-1.5.2-1.5.8 0 .8.8.9 2.5 1.4 1.7.4 3.2 1.1 3.2 3 0 2-1.2 2.9-3 3.2v1c0 .5-.4.8-.9.8h-.8c-.5 0-.9-.3-.9-.8v-.9c-.9-.3-1.8-.5-2.6-.9z" fill="#8233aa"/></g></svg>